<mxfile host="Electron" modified="2024-01-08T10:30:38.889Z" agent="Mozilla/5.0 (Macintosh; Intel Mac OS X 10_15_7) AppleWebKit/537.36 (KHTML, like Gecko) draw.io/21.6.5 Chrome/114.0.5735.243 Electron/25.3.1 Safari/537.36" etag="EpNUHNc_xoNtEbPyX6xd" version="21.6.5" type="device">
  <diagram name="第 1 页" id="aN3s6ekCcb99KKnRJnoy">
    <mxGraphModel dx="819" dy="449" grid="1" gridSize="10" guides="1" tooltips="1" connect="1" arrows="1" fold="1" page="1" pageScale="1" pageWidth="827" pageHeight="1169" math="0" shadow="0">
      <root>
        <mxCell id="0" />
        <mxCell id="1" parent="0" />
        <mxCell id="qcpdygF1grWGY2h8apCm-4" value="" style="rounded=1;whiteSpace=wrap;html=1;" vertex="1" parent="1">
          <mxGeometry x="160" y="200" width="80" height="90" as="geometry" />
        </mxCell>
        <mxCell id="qcpdygF1grWGY2h8apCm-1" value="App Server&lt;br&gt;Router&lt;br&gt;(mongos)" style="text;html=1;align=center;verticalAlign=middle;resizable=0;points=[];autosize=1;strokeColor=none;fillColor=none;" vertex="1" parent="1">
          <mxGeometry x="160" y="200" width="80" height="60" as="geometry" />
        </mxCell>
        <mxCell id="qcpdygF1grWGY2h8apCm-3" value="27017" style="rounded=1;whiteSpace=wrap;html=1;" vertex="1" parent="1">
          <mxGeometry x="180" y="260" width="40" height="20" as="geometry" />
        </mxCell>
        <mxCell id="qcpdygF1grWGY2h8apCm-5" value="" style="rounded=1;whiteSpace=wrap;html=1;" vertex="1" parent="1">
          <mxGeometry x="160" y="320" width="80" height="90" as="geometry" />
        </mxCell>
        <mxCell id="qcpdygF1grWGY2h8apCm-6" value="App Server&lt;br&gt;Router&lt;br&gt;(mongos)" style="text;html=1;align=center;verticalAlign=middle;resizable=0;points=[];autosize=1;strokeColor=none;fillColor=none;" vertex="1" parent="1">
          <mxGeometry x="160" y="320" width="80" height="60" as="geometry" />
        </mxCell>
        <mxCell id="qcpdygF1grWGY2h8apCm-7" value="27018" style="rounded=1;whiteSpace=wrap;html=1;" vertex="1" parent="1">
          <mxGeometry x="180" y="380" width="40" height="20" as="geometry" />
        </mxCell>
        <mxCell id="qcpdygF1grWGY2h8apCm-8" value="" style="rounded=1;whiteSpace=wrap;html=1;" vertex="1" parent="1">
          <mxGeometry x="320" y="230" width="130" height="140" as="geometry" />
        </mxCell>
        <mxCell id="qcpdygF1grWGY2h8apCm-9" value="Config Server&lt;br&gt;(mongod --configsrv)" style="text;html=1;align=center;verticalAlign=middle;resizable=0;points=[];autosize=1;strokeColor=none;fillColor=none;" vertex="1" parent="1">
          <mxGeometry x="320" y="230" width="130" height="40" as="geometry" />
        </mxCell>
        <mxCell id="qcpdygF1grWGY2h8apCm-10" value="10000" style="rounded=1;whiteSpace=wrap;html=1;" vertex="1" parent="1">
          <mxGeometry x="365" y="280" width="40" height="20" as="geometry" />
        </mxCell>
        <mxCell id="qcpdygF1grWGY2h8apCm-11" value="10001" style="rounded=1;whiteSpace=wrap;html=1;" vertex="1" parent="1">
          <mxGeometry x="365" y="310" width="40" height="20" as="geometry" />
        </mxCell>
        <mxCell id="qcpdygF1grWGY2h8apCm-12" value="10002&lt;br&gt;" style="rounded=1;whiteSpace=wrap;html=1;" vertex="1" parent="1">
          <mxGeometry x="365" y="340" width="40" height="20" as="geometry" />
        </mxCell>
        <mxCell id="qcpdygF1grWGY2h8apCm-16" value="" style="endArrow=classic;startArrow=classic;html=1;rounded=0;" edge="1" parent="1">
          <mxGeometry width="50" height="50" relative="1" as="geometry">
            <mxPoint x="260" y="300" as="sourcePoint" />
            <mxPoint x="300" y="300" as="targetPoint" />
          </mxGeometry>
        </mxCell>
        <mxCell id="qcpdygF1grWGY2h8apCm-17" value="" style="rounded=1;whiteSpace=wrap;html=1;" vertex="1" parent="1">
          <mxGeometry x="530" y="140" width="130" height="140" as="geometry" />
        </mxCell>
        <mxCell id="qcpdygF1grWGY2h8apCm-18" value="Shard (rs0)&lt;br&gt;(mongod --shardsrv)" style="text;html=1;align=center;verticalAlign=middle;resizable=0;points=[];autosize=1;strokeColor=none;fillColor=none;" vertex="1" parent="1">
          <mxGeometry x="530" y="140" width="130" height="40" as="geometry" />
        </mxCell>
        <mxCell id="qcpdygF1grWGY2h8apCm-19" value="20000" style="rounded=1;whiteSpace=wrap;html=1;" vertex="1" parent="1">
          <mxGeometry x="575" y="190" width="40" height="20" as="geometry" />
        </mxCell>
        <mxCell id="qcpdygF1grWGY2h8apCm-20" value="20001" style="rounded=1;whiteSpace=wrap;html=1;" vertex="1" parent="1">
          <mxGeometry x="575" y="220" width="40" height="20" as="geometry" />
        </mxCell>
        <mxCell id="qcpdygF1grWGY2h8apCm-21" value="20002" style="rounded=1;whiteSpace=wrap;html=1;" vertex="1" parent="1">
          <mxGeometry x="575" y="250" width="40" height="20" as="geometry" />
        </mxCell>
        <mxCell id="qcpdygF1grWGY2h8apCm-22" value="" style="rounded=1;whiteSpace=wrap;html=1;" vertex="1" parent="1">
          <mxGeometry x="530" y="330" width="130" height="140" as="geometry" />
        </mxCell>
        <mxCell id="qcpdygF1grWGY2h8apCm-23" value="Shard (rs1)&lt;br&gt;(mongod --shardsrv)" style="text;html=1;align=center;verticalAlign=middle;resizable=0;points=[];autosize=1;strokeColor=none;fillColor=none;" vertex="1" parent="1">
          <mxGeometry x="530" y="330" width="130" height="40" as="geometry" />
        </mxCell>
        <mxCell id="qcpdygF1grWGY2h8apCm-24" value="30000" style="rounded=1;whiteSpace=wrap;html=1;" vertex="1" parent="1">
          <mxGeometry x="575" y="380" width="40" height="20" as="geometry" />
        </mxCell>
        <mxCell id="qcpdygF1grWGY2h8apCm-25" value="30001" style="rounded=1;whiteSpace=wrap;html=1;" vertex="1" parent="1">
          <mxGeometry x="575" y="410" width="40" height="20" as="geometry" />
        </mxCell>
        <mxCell id="qcpdygF1grWGY2h8apCm-26" value="30002" style="rounded=1;whiteSpace=wrap;html=1;" vertex="1" parent="1">
          <mxGeometry x="575" y="440" width="40" height="20" as="geometry" />
        </mxCell>
        <mxCell id="qcpdygF1grWGY2h8apCm-28" value="" style="endArrow=none;html=1;rounded=0;exitX=1;exitY=0.5;exitDx=0;exitDy=0;entryX=0;entryY=0.5;entryDx=0;entryDy=0;" edge="1" parent="1" source="qcpdygF1grWGY2h8apCm-8" target="qcpdygF1grWGY2h8apCm-17">
          <mxGeometry width="50" height="50" relative="1" as="geometry">
            <mxPoint x="410" y="480" as="sourcePoint" />
            <mxPoint x="460" y="430" as="targetPoint" />
          </mxGeometry>
        </mxCell>
        <mxCell id="qcpdygF1grWGY2h8apCm-29" value="" style="endArrow=none;html=1;rounded=0;exitX=1;exitY=0.5;exitDx=0;exitDy=0;entryX=0;entryY=0.5;entryDx=0;entryDy=0;" edge="1" parent="1" source="qcpdygF1grWGY2h8apCm-8" target="qcpdygF1grWGY2h8apCm-22">
          <mxGeometry width="50" height="50" relative="1" as="geometry">
            <mxPoint x="460" y="310" as="sourcePoint" />
            <mxPoint x="540" y="220" as="targetPoint" />
          </mxGeometry>
        </mxCell>
      </root>
    </mxGraphModel>
  </diagram>
</mxfile>
